<?xml version="1.0" encoding="UTF-8" standalone="no"?>
<svg width="100px" height="80px" viewBox="0 0 100 80" version="1.1" xmlns="http://www.w3.org/2000/svg" xmlns:xlink="http://www.w3.org/1999/xlink" xmlns:sketch="http://www.bohemiancoding.com/sketch/ns">
    <!-- Generator: Sketch 3.3.2 (12043) - http://www.bohemiancoding.com/sketch -->
    <title>logo</title>
    <desc>Created with Sketch.</desc>
    <defs></defs>
    <g id="Page-1" stroke="none" stroke-width="1" fill="none" fill-rule="evenodd" sketch:type="MSPage">
        <g id="Icon" sketch:type="MSLayerGroup" transform="translate(4.000000, 4.000000)">
            <path d="M88.7,42.9 C87.7,39.5 85.6,36.6 82.8,34.3 C78.4,37.1 71.9,42.3 71.8,48.8 C71.8,52.8 73.5,56.2 76.7,58.5 C79.6,60.6 83.6,61.5 87.4,61.1 C90.4,56.2 90.8,49.9 88.7,42.9 L88.7,42.9 Z" id="Shape" fill="#01579B" sketch:type="MSShapeGroup"></path>
            <path d="M75.4,60.3 C71.6,57.6 69.5,53.5 69.6,48.8 C69.7,41.6 76.1,36 80.8,32.9 C76.7,30.2 71.4,28.5 65.5,27.6 C64.9,24.8 62.6,18.5 54.3,18.7 C45.9,18.9 43.8,25 43.2,27.7 C40.7,28.1 38.1,28.5 35.7,29.1 C17.1,33.6 14.6,44.2 14.3,48.2 L2.2,48.2 C1,48.2 0,49.2 0,50.4 C0,51.6 1,52.6 2.2,52.6 L14.4,52.6 C16.4,69.5 43.6,73.1 64.1,71.8 C74.3,71.1 81.4,68.1 85.6,63.5 L85.5,63.5 C81.9,63.4 78.3,62.3 75.4,60.3 L75.4,60.3 Z M30.9,54.8 C27.9,54.8 25.5,52.3 25.5,49.4 C25.5,46.4 28,44 30.9,44 C33.8,44 36.3,46.5 36.3,49.4 C36.3,52.3 33.9,54.8 30.9,54.8 L30.9,54.8 Z M54.4,55.3 L54.3,55.3 C50.7,55.3 47.7,52.3 47.7,48.7 C47.7,45.1 50.7,42.1 54.3,42.1 L54.4,42.1 C58,42.1 61,45.1 61,48.7 C61,52.4 58,55.3 54.4,55.3 L54.4,55.3 Z" id="Shape" fill="#0091EA" sketch:type="MSShapeGroup"></path>
            <path d="M59.2,17.8 L59.2,13.3 C59.2,13.3 58.9,10.1 62,10.1 L67.8,10.1 C67.8,10.1 66.3,0.8 71.4,0.4 L61.6,0.4 C59.1,0.4 56.6,1.3 54.7,2.9 C52,5.2 50.4,8.7 50.4,12.3 L50.4,17.7 C50.4,17.8 54.7,16.2 59.2,17.8 L59.2,17.8 Z" id="Shape" fill="#0091EA" sketch:type="MSShapeGroup"></path>
            <path id="Shape" fill="#000000" sketch:type="MSShapeGroup" d="M71.4,0.5 L72,0.5 C71.8,0.4 71.6,0.4 71.4,0.5 L71.4,0.5 Z"></path>
            <ellipse id="Oval" fill="#01579B" sketch:type="MSShapeGroup" cx="73.5" cy="7.2" rx="4.2" ry="6"></ellipse>
            <path d="M8.6,46.8 C8.6,46.8 10.9,43.4 11.1,37.7 C11.3,32 7.5,31.3 6.1,31.3 C4.7,31.3 1.3,32.3 1.3,37.3 C1.3,42.3 3.3,46.8 3.3,46.8 L8.6,46.8 L8.6,46.8 Z" id="Shape" fill="#01579B" sketch:type="MSShapeGroup"></path>
            <path d="M3.3,54 C3.3,54 1.3,58.5 1.3,63.5 C1.3,68.5 4.7,69.5 6.1,69.5 C7.5,69.5 11.3,68.8 11.1,63.1 C10.9,57.4 8.6,54 8.6,54 L3.3,54 L3.3,54 Z" id="Shape" fill="#01579B" sketch:type="MSShapeGroup"></path>
        </g>
        <rect id="Lighten" fill-opacity="0.6" fill="#FFFFFF" sketch:type="MSShapeGroup" x="0" y="0" width="100" height="80"></rect>
    </g>
</svg>